<svg width="30" height="30" viewBox="0 0 30 30" fill="none" xmlns="http://www.w3.org/2000/svg">
<g id="CheckmarkCircleIcon">
<path id="Vector" fill-rule="evenodd" clip-rule="evenodd" d="M4.6875 15C4.6875 12.265 5.77399 9.64193 7.70796 7.70796C9.64193 5.77399 12.265 4.6875 15 4.6875C17.735 4.6875 20.3581 5.77399 22.292 7.70796C24.226 9.64193 25.3125 12.265 25.3125 15C25.3125 17.735 24.226 20.3581 22.292 22.292C20.3581 24.226 17.735 25.3125 15 25.3125C12.265 25.3125 9.64193 24.226 7.70796 22.292C5.77399 20.3581 4.6875 17.735 4.6875 15ZM15 2.8125C8.26875 2.8125 2.8125 8.26875 2.8125 15C2.8125 21.7313 8.26875 27.1875 15 27.1875C21.7313 27.1875 27.1875 21.7313 27.1875 15C27.1875 8.26875 21.7313 2.8125 15 2.8125ZM20.7162 11.855C20.7957 11.7609 20.8558 11.6522 20.8933 11.5349C20.9307 11.4175 20.9446 11.294 20.9343 11.1713C20.9239 11.0486 20.8895 10.9292 20.833 10.8198C20.7765 10.7104 20.6991 10.6132 20.605 10.5338C20.5109 10.4543 20.4022 10.3942 20.2849 10.3567C20.1675 10.3193 20.044 10.3054 19.9213 10.3157C19.7986 10.3261 19.6792 10.3605 19.5698 10.417C19.4604 10.4735 19.3632 10.5509 19.2838 10.645L13.0675 17.9912L10.0375 14.9625C9.85978 14.7969 9.62472 14.7067 9.38185 14.711C9.13897 14.7153 8.90724 14.8137 8.73547 14.9855C8.56371 15.1572 8.46532 15.389 8.46103 15.6318C8.45675 15.8747 8.5469 16.1098 8.7125 16.2875L12.4625 20.0375C12.5542 20.129 12.6639 20.2005 12.7846 20.2475C12.9053 20.2945 13.0344 20.316 13.1639 20.3106C13.2933 20.3052 13.4202 20.273 13.5366 20.2161C13.6529 20.1592 13.7563 20.0788 13.84 19.98L20.7162 11.855Z" fill="#68B096"/>
</g>
</svg>
