<svg width="441" height="560" viewBox="0 0 441 560" fill="none" xmlns="http://www.w3.org/2000/svg">
<path d="M90.6185 501.424C90.6185 492.138 90.6905 483.815 90.6185 475.477C90.3594 447.934 89.5102 420.424 82.1268 393.829C80.3565 387.433 77.003 381.51 74.0813 375.557C71.4906 370.298 66.9281 366.349 61.8762 368.576C58.4364 370.092 54.5359 375.335 54.1329 379.315C52.7656 392.534 51.0961 406.21 52.8088 419.192C56.3926 446.497 62.0633 473.487 66.2516 501.029C62.0058 489.279 58.019 477.388 53.4565 465.78C46.2889 447.618 39.3228 429.299 31.0614 411.722C27.2329 403.573 21.0297 396.513 14.9847 390.007C12.6531 387.512 7.38536 386.532 4.1326 387.527C2.18959 388.128 0.822276 393.813 0.47685 397.366C-2.32973 426.204 7.61565 451.203 20.713 475.034C35.0626 501.14 51.6286 525.381 73.6926 544.364C78.2983 548.328 83.9546 550.95 89.3519 553.682C94.8499 556.477 100.362 555.261 104.666 550.871C112.855 542.516 121.505 534.462 128.457 524.955C149.125 496.734 167.101 466.506 179.767 432.868C182.113 426.646 183.984 419.95 184.632 413.301C184.992 409.59 183.351 403.794 180.846 402.12C178.414 400.493 172.916 401.693 170.167 403.825C157.833 413.443 150.017 427.372 142.619 441.491C134.962 456.099 127.565 470.881 119.246 485.394C122.527 472.808 126.327 460.347 128.989 447.603C133.581 425.698 138.302 403.525 132.3 381.147C130.976 376.236 126.442 370.566 122.167 368.813C115.82 366.223 112.164 372.761 110.581 378.652C106.091 395.345 100.88 411.99 98.3906 429.094C95.0514 452.04 93.9864 475.398 91.9138 498.565C91.8563 499.245 91.3381 499.876 90.6329 501.424H90.6185Z" fill="#68B096"/>
<path d="M362.092 258.259C368.455 258.536 385.191 260.615 390.723 265.884C396.118 271.29 392.106 271.984 389.202 271.845C386.159 271.568 377.307 270.736 387.127 276.836C391.415 279.47 395.564 283.213 398.054 287.234C399.575 289.729 398.607 293.056 388.372 292.918C378.137 292.779 366.933 290.284 360.017 284.045C353.102 277.945 354.761 277.806 354.761 277.806L362.092 258.259Z" fill="#F9C4AA"/>
<path d="M156.993 316.143C158.244 321.534 160.745 335.773 157.549 341.579C154.352 347.385 152.963 348.352 142.956 353.19C140.732 354.296 136.841 354.435 134.617 346.002C132.394 337.57 131.56 327.755 135.034 320.428C138.509 313.24 138.926 314.623 138.926 314.623L156.993 316.143Z" fill="#F9C4AA"/>
<path d="M153.732 542.271C152.486 547.802 149.581 555.546 151.518 557.482C153.455 559.418 221.117 559.418 222.362 558.727C222.916 558.45 223.469 556.514 219.595 552.78C213.507 546.834 201.884 538.122 201.884 538.122L153.732 542.271Z" fill="black"/>
<path d="M236.35 545.259C236.35 551.316 235.38 557.51 237.32 558.473C239.26 559.437 319.356 561.364 319.356 558.473C319.356 555.583 318.386 553.656 312.289 549.802C306.191 545.947 286.652 533.008 286.652 533.008L236.35 545.259Z" fill="black"/>
<path d="M153.711 542.313C153.711 542.313 154.543 493.728 157.594 459.401C159.12 442.79 161.339 405.418 162.587 385.347C163.835 365.277 171.047 275.997 171.047 275.997C171.047 275.997 222.777 275.72 235.952 275.997C249.127 276.274 276.033 276.689 276.033 276.689C276.033 276.689 277.419 303.404 277.419 335.101C277.419 362.37 287.128 454.971 286.434 468.675C285.741 482.378 288.098 527.502 287.405 531.378C286.711 535.254 268.96 538.991 262.025 540.929C255.091 542.867 239.003 548.126 236.091 545.22C233.179 542.313 230.96 464.661 229.711 446.251C228.741 432.132 226.799 389.361 226.799 372.336C226.799 355.31 226.383 335.655 224.441 334.963C222.5 334.271 217.091 378.149 214.456 400.435C211.821 422.72 209.186 440.714 206.828 466.737C204.332 494.697 204.748 527.779 201.003 535.669C197.536 543.559 157.594 542.175 153.711 542.313Z" fill="#DA573B"/>
<path d="M176.134 284.583C183.62 284.722 267.076 282.228 270.125 282.089C273.037 281.951 276.225 282.782 276.087 277.24C275.809 271.837 276.225 259.644 276.502 244.958C276.78 233.042 276.364 219.741 277.196 219.464C278.027 219.187 283.988 239.416 293.277 252.578C302.565 265.74 349.145 292.204 352.333 291.788C355.383 291.372 359.958 266.572 362.73 259.367C365.503 252.301 364.81 252.994 362.453 250.777C359.958 248.56 334.034 230.133 326.964 220.434C319.894 210.874 300.901 180.393 294.663 170.833C288.286 161.273 276.087 147.418 266.521 144.092C257.094 140.767 235.468 141.46 226.596 141.737C217.723 142.153 194.711 143.122 182.927 149.911C176.411 153.652 159.499 169.586 154.231 188.844C148.963 208.103 139.12 250.361 135.516 277.24C131.911 304.119 130.386 316.866 131.773 319.775C133.159 322.685 158.667 321.715 161.024 321.853C163.38 321.992 168.648 265.74 169.896 257.843C171.144 249.945 174.887 222.789 175.857 222.235C176.827 221.681 169.896 283.752 170.866 284.306C171.837 285.137 176.134 284.583 176.134 284.583Z" fill="#F9CC76"/>
<path d="M158.915 425.62L173.167 244.815C173.167 244.815 180.776 243.569 184.235 242.738C187.694 242.045 188.247 147.17 188.247 147.17C188.247 147.17 195.165 145.231 195.718 145.092C196.272 144.954 198.07 198.416 198.485 203.126C198.485 203.126 245.249 201.879 247.324 201.464C247.324 201.464 249.399 156.173 249.538 153.126C249.676 150.079 249.538 141.768 249.538 141.768C249.538 141.768 256.455 142.045 258.531 142.738C260.467 143.43 261.021 215.175 262.543 238.998C262.543 238.998 264.895 239.414 267.523 239.691C269.599 239.968 275.41 240.522 275.41 240.522L283.507 425.62H158.915Z" fill="#CDE5F2"/>
<path d="M373.327 0C373.775 2.83469 374.523 5.81857 374.523 8.65325C374.224 50.4276 373.775 92.2019 373.477 133.976C373.477 135.468 372.879 137.259 373.477 138.452C374.821 140.69 376.764 142.48 378.557 144.42C380.201 142.331 383.189 140.392 383.338 138.303C384.085 124.875 384.235 111.448 384.534 98.0205C385.281 68.1817 385.879 38.3429 386.626 8.50406C386.626 5.66937 387.522 2.83469 388.12 0C389.166 0 390.062 0 391.108 0C391.557 2.5363 392.602 5.22179 392.602 7.75809C393.051 49.234 393.499 90.8592 393.798 132.335C393.798 134.871 393.35 137.557 394.097 139.795C394.844 141.734 397.085 144.121 398.729 144.121C400.372 144.121 402.763 141.585 403.361 139.795C404.257 137.408 403.809 134.424 403.809 131.738C404.108 90.71 404.407 49.6816 404.706 8.65325C404.706 5.81857 405.602 2.98388 406.05 0.149194C407.096 0.149194 408.142 0.149194 409.039 0.149194C409.636 2.68549 410.533 5.22179 410.533 7.90728C411.579 50.1292 412.475 92.3511 413.521 134.722C413.521 136.662 413.073 139.049 413.97 140.541C415.165 142.331 417.406 144.121 419.349 144.42C420.694 144.569 422.785 142.033 423.532 140.392C424.28 138.75 423.831 136.513 423.682 134.424C423.234 92.9479 422.935 51.3227 422.636 9.84681C422.636 6.56454 423.831 3.43146 424.429 0.149194C425.326 0.149194 426.222 0.298388 427.119 0.298388C427.567 2.5363 428.463 4.77421 428.613 7.01212C431.004 38.7904 433.394 70.4196 435.636 102.198C437.279 123.98 438.624 145.912 440.268 167.694C441.164 179.779 437.279 189.626 427.866 197.234C412.774 209.468 407.395 225.731 407.096 244.678C406.2 310.174 409.338 375.372 415.912 440.421C418.9 470.558 421.441 500.844 423.682 530.982C424.728 544.409 417.556 554.554 406.05 557.986C388.269 563.207 371.833 550.377 373.028 531.578C374.224 512.481 376.166 493.385 378.109 474.437C385.58 397.453 391.407 320.469 389.614 242.888C389.166 224.835 383.787 209.319 369.293 197.533C359.581 189.327 355.696 178.734 356.742 165.755C360.776 112.492 364.661 59.23 368.546 5.96776C368.695 3.87904 369.592 1.93952 370.189 0C371.235 0 372.281 0 373.327 0Z" fill="#16396C"/>
<path d="M197.812 82.8445C197.812 82.8445 194.436 89.7165 187.855 96.2073C181.274 102.698 179.968 105.367 179.156 109.336C177.314 118.305 179.027 123.947 183.725 128.678C187.993 132.977 187.864 133.861 197.78 135.793C208.118 137.812 210.09 129.866 210.09 129.866C210.09 129.866 203.054 114.579 204.263 109.327C205.481 104.076 210.836 92.8536 210.836 92.8536" fill="#1F1929"/>
<path d="M215.923 70.2647C211.194 72.1625 207.089 75.8021 204.19 80.6808L202.87 82.8992C199.437 88.6791 197.931 95.8022 198.659 102.856L199.178 107.917C199.72 113.168 201.469 118.133 204.238 122.25L206.02 124.901C210.498 131.565 217.243 135.439 224.368 135.439H230.012C237.17 135.439 243.154 131.53 247.623 124.815L248.206 123.939C251.866 118.454 253.696 111.539 253.348 104.52L253.065 98.8179C252.49 87.2146 246.077 77.2059 236.887 73.575C232.069 71.6772 220.741 68.3323 215.931 70.2561L215.923 70.2647Z" fill="#F9C4AA"/>
<path d="M198.497 99.5796C197.484 99.9955 196.594 100.489 196.408 101.443C195.978 103.002 195.841 104.441 196.464 105.992C197.023 107.24 197.986 107.925 199.857 108.774L198.497 99.5796Z" fill="#F9C4AA"/>
<path d="M253.081 99.4233C254.133 99.6746 255.081 100.021 255.388 100.94C256.02 102.413 256.344 103.817 255.931 105.446C255.542 106.772 254.676 107.595 252.935 108.739L253.081 99.4233Z" fill="#F9C4AA"/>
<path d="M234.672 74.2792C234.688 73.7159 235.362 71.4455 235.491 70.9082C234.436 70.7002 236.53 70.9342 235.491 70.9082C246.235 73.0314 255.997 86.1428 254.009 97.6165C253.912 98.1711 253.79 98.7084 253.66 99.237C252.622 99.211 251.453 99.4536 250.528 98.8903C244.109 94.9994 234.412 84.2797 234.672 74.2706V74.2792Z" fill="#1F1929"/>
<path d="M239.752 72.3129C240.621 72.7375 241.457 73.1968 242.276 73.6821C241.773 75.6232 241.132 77.5384 240.329 79.4276C232.108 98.7178 210.799 107.236 192.735 98.4492C191.867 98.0246 191.031 97.5653 190.212 97.08C190.715 95.1388 191.356 93.2236 192.159 91.3345C200.38 72.0442 221.689 63.5257 239.752 72.3129Z" fill="#1F1929"/>
</svg>
