<?xml version="1.0" encoding="UTF-8"?>
<svg xmlns="http://www.w3.org/2000/svg" viewBox="0 0 995.47 1002.92">
  <path d="m362.73,317.01c-24.11,0-41.72,10.04-53.1,30.61-5.31,9.55-8.12,20.08-8.12,31.5,0,10.53,2.59,20.3,7.42,29.42,11.86,21.5,29.69,32.21,53.8,32.21s41.24-9.78,52.83-29.42c6.02-10,8.78-20.75,8.78-32.21s-2.55-21.94-8.08-31.5c-11.59-20.57-29.69-30.61-53.54-30.61Zm270.23,0c-24.55,0-42.43,10.04-53.76,30.61-5.36,9.55-8.12,20.08-8.12,31.5s2.77,21.28,8.12,30.83c11.33,20.53,29.21,30.79,53.76,30.79s41.72-10.26,52.83-30.79c5.58-9.55,8.35-19.86,8.35-30.83,0-11.9-2.77-22.65-8.35-32.21-12.03-20.08-29.64-29.91-52.83-29.91h0ZM497.87,63.26c119.81,0,222.49,42.96,307.52,128.87,85.07,85.91,127.72,189.12,127.72,309.58s-42.65,223.89-127.72,309.31c-85.03,85.47-187.71,128.42-307.52,128.42s-222.05-42.96-307.35-128.42c-85.29-85.42-127.94-188.63-127.94-309.31s42.65-223.67,127.94-309.58S378.23,63.26,497.87,63.26h0Zm0-63.04C360.62.22,243.36,49.28,145.99,147.31,48.66,245.34,0,363.5,0,501.7s48.66,256.1,145.99,354.17c97.37,98.03,214.63,147.05,351.88,147.05s254.47-49.02,351.57-147.05c97.37-98.08,146.03-216.19,146.03-354.17s-48.66-256.36-146.03-354.39C752.33,49.28,635.03.22,497.87.22h0ZM216.7,461.32h-69.3c0,98.52,34.52,182.31,103.6,251.89s152.27,104.36,249.64,104.36,180.29-34.77,249.37-104.36,103.6-153.37,103.6-251.89h-69.3c0,79.36-27.58,146.61-83.18,201.95-55.38,55.56-122.14,83.08-200.49,83.08s-145.33-27.52-200.71-83.08c-55.43-55.34-83.23-122.58-83.23-201.95h0Z"/>
</svg>
