<?xml version="1.0" encoding="UTF-8"?>
<svg xmlns="http://www.w3.org/2000/svg" viewBox="0 0 995.47 1002.92">
  <path d="m497.87,0c-137.25,0-254.51,49.02-351.88,147.09C48.66,245.12,0,363.28,0,501.48s48.66,256.1,145.99,354.17c97.37,98.03,214.63,147.05,351.88,147.05s254.47-49.02,351.57-147.05c97.37-98.08,146.03-216.19,146.03-354.17s-48.66-256.36-146.03-354.39C752.33,49.02,635.03,0,497.87,0h0Zm0,63.04c119.81,0,222.49,42.96,307.52,128.87,85.07,85.91,127.72,189.12,127.72,309.58s-42.65,223.89-127.72,309.31c-85.03,85.47-187.71,128.42-307.52,128.42s-222.1-42.96-307.35-128.42c-85.34-85.42-127.94-188.63-127.94-309.31s42.6-223.67,127.94-309.58C275.77,105.99,378.23,63.04,497.87,63.04h0Zm135.1,253.75c-24.55,0-42.43,10.04-53.76,30.61-5.36,9.55-8.12,20.08-8.12,31.5s2.77,21.28,8.12,30.83c11.33,20.53,29.21,30.79,53.76,30.79,23.19,0,40.58-9.78,52.13-29.42,6.06-9.07,9.05-19.82,9.05-32.21s-2.99-23.31-9.05-32.21c-11.55-20.08-28.94-29.91-52.13-29.91h0Zm-270.23,0c-24.11,0-41.94,10.53-53.8,32.03-4.83,9.55-7.42,19.6-7.42,30.08s2.81,21.28,8.12,30.83c11.38,20.53,28.99,30.79,53.1,30.79s41.94-10.26,53.54-30.79c5.53-9.55,8.08-19.86,8.08-30.83s-2.55-21.94-8.08-31.5c-11.59-20.57-29.69-30.61-53.54-30.61h0Zm403.26,342.49l.7-.71c0,.49-.22.71-.7.71h0Zm10.89-.71H232.2v63.04h544.68v-63.04h0Z"/>
</svg>
