<?xml version="1.0" encoding="UTF-8"?>
<svg xmlns="http://www.w3.org/2000/svg" viewBox="0 0 995.47 1002.7">
  <path d="m497.87,0c-137.2,0-254.47,49.02-351.84,147.09C48.66,245.12,0,363.28,0,501.48s48.66,256.1,146.03,354.17c97.37,98.03,214.63,147.05,351.83,147.05s254.51-49.02,351.61-147.05c97.32-98.08,145.99-216.19,145.99-354.17s-48.66-256.36-145.99-354.39C752.38,49.02,635.07,0,497.87,0h0Zm0,63.04c119.86,0,222.49,42.96,307.56,128.87s127.72,189.12,127.72,309.58-42.65,223.89-127.72,309.31c-85.07,85.47-187.71,128.42-307.56,128.42s-222.05-42.96-307.35-128.42c-85.29-85.42-127.94-188.63-127.94-309.31s42.65-223.67,127.94-309.58S378.27,63.04,497.87,63.04h0Zm-135.09,253.75c-24.16,0-41.72,10.04-53.1,30.61-5.36,9.55-8.12,20.08-8.12,31.5,0,12.39,3.03,23.14,8.83,32.21,12.25,19.64,29.65,29.42,52.4,29.42s41.94-10.26,53.54-30.79c5.53-9.55,8.08-19.86,8.08-30.83s-2.77-22.16-8.83-32.21c-11.55-20.08-29.43-29.91-52.79-29.91h0Zm270.23,0c-24.55,0-42.86,10.53-54.94,32.03-4.61,10-6.94,20.04-6.94,30.08,0,10.97,2.77,21.28,8.12,30.83,11.33,20.53,29.21,30.79,53.76,30.79s41.68-10.26,52.83-30.79c5.58-9.55,8.35-19.86,8.35-30.83,0-12.83-3.03-23.31-9.05-32.21-11.6-20.08-28.94-29.91-52.13-29.91Zm-454.3,408.81l62.36,22.65c21.78-49.28,56.08-88.96,102.9-119.31s98.73-45.52,155.3-45.52,108.92,15.17,156.22,45.52c47.04,30.35,81.12,70.03,102.42,119.31l62.58-22.65c-26.4-64.19-68.82-116.04-127.45-155.5-58.68-39.46-123.32-59.06-193.77-59.06s-134.66,19.6-193.33,59.06c-58.63,39.46-101.06,91.31-127.23,155.5h0Z"/>
</svg>
