<svg width="30" height="30" viewBox="0 0 30 30" fill="none" xmlns="http://www.w3.org/2000/svg">
<g id="XMarkOctagonIcon">
<path id="Vector" fill-rule="evenodd" clip-rule="evenodd" d="M9.6775 3.0875C9.85315 2.91163 10.0914 2.81272 10.34 2.8125H19.66C19.9086 2.81272 20.1469 2.91163 20.3225 3.0875L26.9125 9.6775C27.0888 9.8525 27.1875 10.0913 27.1875 10.34V19.66C27.1873 19.9086 27.0884 20.1469 26.9125 20.3225L20.3225 26.9125C20.1469 27.0884 19.9086 27.1873 19.66 27.1875H10.34C10.0914 27.1873 9.85315 27.0884 9.6775 26.9125L3.0875 20.3225C2.91163 20.1469 2.81272 19.9086 2.8125 19.66V10.34C2.81272 10.0914 2.91163 9.85315 3.0875 9.6775L9.6775 3.0875ZM10.7275 4.6875L4.6875 10.7288V19.2712L10.7288 25.3125H19.2712L25.3125 19.2712V10.7288L19.2712 4.6875H10.7288H10.7275ZM11.2875 9.9625C11.1098 9.7969 10.8747 9.70675 10.6318 9.71103C10.389 9.71532 10.1572 9.81371 9.98547 9.98547C9.81371 10.1572 9.71532 10.389 9.71103 10.6318C9.70675 10.8747 9.7969 11.1098 9.9625 11.2875L13.675 15L9.9625 18.7125C9.87039 18.7983 9.79651 18.9018 9.74527 19.0168C9.69403 19.1318 9.66648 19.256 9.66426 19.3818C9.66204 19.5077 9.6852 19.6328 9.73235 19.7495C9.7795 19.8662 9.84968 19.9723 9.9387 20.0613C10.0277 20.1503 10.1338 20.2205 10.2505 20.2677C10.3672 20.3148 10.4923 20.338 10.6182 20.3357C10.744 20.3335 10.8682 20.306 10.9832 20.2547C11.0982 20.2035 11.2017 20.1296 11.2875 20.0375L15 16.325L18.7125 20.0375C18.7983 20.1296 18.9018 20.2035 19.0168 20.2547C19.1318 20.306 19.256 20.3335 19.3818 20.3357C19.5077 20.338 19.6328 20.3148 19.7495 20.2677C19.8662 20.2205 19.9723 20.1503 20.0613 20.0613C20.1503 19.9723 20.2205 19.8662 20.2677 19.7495C20.3148 19.6328 20.338 19.5077 20.3357 19.3818C20.3335 19.256 20.306 19.1318 20.2547 19.0168C20.2035 18.9018 20.1296 18.7983 20.0375 18.7125L16.325 15L20.0375 11.2875C20.2031 11.1098 20.2933 10.8747 20.289 10.6318C20.2847 10.389 20.1863 10.1572 20.0145 9.98547C19.8428 9.81371 19.611 9.71532 19.3682 9.71103C19.1253 9.70675 18.8902 9.7969 18.7125 9.9625L15 13.675L11.2875 9.9625Z" fill="#DA573B"/>
</g>
</svg>
